<svg data-bbox="0 0 592.396 167.88" viewBox="0 0 593.22 167.89" xmlns="http://www.w3.org/2000/svg" data-type="color">
    <g transform="scale(1.0)">
        <path d="M179.67 24.35v24.23h-30.94V24.35h30.94Zm0 37.78v103.32h-30.94V62.13h30.94Z" fill="black" data-color="2"/>
        <path d="M248.7 142.12c3.09 0 5.88 0 8.18-.09v23.42c-2.88.3-11.94.39-19.52.39-22.52 0-31.93-4.7-31.93-26.17V82.14h-16.12V62.12h16.12V33.5h30.94v28.62h21.05v20.02h-21.05v49.98c0 9.03 3.49 10 12.34 10Z" fill="black" data-color="2"/>
        <path d="M333.06 93.55c-1.77-9.15-8.98-14.28-18.42-14.28-8.85 0-15.27 3.8-15.27 10.83 0 6.66 6.77 8.7 17.16 10.44l10.76 1.66c18.88 3.12 37.42 8.68 37.42 32.27s-21.31 33.41-49.31 33.41-47.07-11.77-50.58-32.57l29.08-3.48c2.06 11.06 9.87 16.46 21.78 16.46 10.64 0 17.48-4.68 17.48-12.4 0-6.33-7.08-9.26-18.3-11.09l-11.79-1.85c-16.82-2.63-34.63-8.71-34.63-31.19 0-20.78 21.68-32.07 45.96-32.07s43.75 11.32 47.21 30.59l-28.56 3.27Z" fill="black" data-color="2"/>
        <path d="M475.97 134.49c-3.74 14.49-18.09 33.39-51.95 33.39s-53.34-20.69-53.34-53.9 19.76-54.3 53.25-54.3 55.56 20.88 53.04 60.44h-74.63c.27 16.32 8.7 26.89 21.68 26.89s18.59-8.16 20.29-14.64l31.66 2.11Zm-73.34-33.11h42.68c-.72-12.04-8.24-21.35-21.38-21.35s-20.58 9.31-21.3 21.35Z" fill="black" data-color="2"/>
        <path d="M591.2 134.49c-3.74 14.49-18.09 33.39-51.95 33.39s-53.34-20.69-53.34-53.9 19.75-54.3 53.25-54.3 55.56 20.88 53.04 60.44h-74.63c.27 16.32 8.7 26.89 21.68 26.89s18.59-8.16 20.29-14.64l31.66 2.11Zm-73.34-33.11h42.68c-.72-12.04-8.24-21.35-21.38-21.35s-20.58 9.31-21.3 21.35Z" fill="black" data-color="2"/>
        <path d="M115.03 91.87v-.78c11.04-5.08 17.76-14.2 17.76-27.31 0-22.49-16.26-37.48-44.58-37.48H51.28v24.91h30.04c12.15 0 18.47 6.05 18.47 15.98s-6.31 15.97-18.47 15.97H51.28V51.21H18.16v114.23h72.92c29.46 0 46.29-15.56 46.29-41.19 0-16.54-9.17-27.02-22.33-32.38Zm-31.26 48.06H51.28v-34.39h32.49c13.08 0 19.86 6.51 19.86 17.19s-6.78 17.19-19.86 17.19Z" fill="black" data-color="2"/>
        <path fill="black" d="M36.31 0v36.31H0V0h36.31z" data-color="2"/>
    </g>
</svg>